<?xml version="1.0" encoding="UTF-8"?>
<svg version="1.1" viewBox="0 0 2048 1024" width="6912" height="3456" xmlns="http://www.w3.org/2000/svg">
<path transform="translate(0)" d="m0 0h2048v1024h-2048z" fill="#FDFDFD"/>
<path transform="translate(1331,396)" d="m0 0h55l2 15 11 129 1 2 15-145 1-1h59l1 2 15 142 1 2 12-137 1-9h55l-1 16-24 204-1 1h-72l-8-64-7-58h-1l-16 120-1 2h-72l-2-11-24-207z" fill="#26602F"/>
<path transform="translate(124,539)" d="m0 0 25 1 18 2 26 5 32 13 105 43 39 15 31 11 17 3h19l42-2v4l-9 10-11 9-15 8-13 4-13 2-16 1h-15l-37-1v2l5 2 23 12 23 10 19 7 21 6 20 4 17 2h35l17-2 23-5 23-8 22-10 19-11 10-6v3l-7 8-11 11-11 9-17 13-18 11-15 8-27 11-25 7-24 4-12 1h-24l-26-3-25-6-21-8-17-8-18-11-16-11-14-10-19-14-14-11-13-11-11-9-8-8-8-7-17-14-13-10-21-14-20-12-27-13-28-10-28-7-32-5-1-2 19-5 27-5 19-2z" fill="#265F2F"/>
<path transform="translate(474,284)" d="m0 0h31l18 2 23 5 21 7 23 11 16 10 17 12 19 14 16 12 28 22 13 11 11 9 14 12 12 10 11 8 15 10 15 9 17 9 25 10 22 7 26 6 29 4 2 2-5 3-20 6-21 4-16 2h-47l-20-3-15-4-16-6-17-8-41-18-34-15-40-17-36-13-23-6-16-3-15-2h-35l-17 2-1-2 7-9 10-9 12-7 13-5 15-3 29-1 22 1h18l-10-8-14-9-17-10-19-9-24-8-16-3-11-1h-18l-29 3-28 5-21 6-18 8-14 8-23 14-2-1 9-10 13-12 8-8 11-9 10-8 10-7 16-10 21-10 21-6 19-3z" fill="#265F2F"/>
<path transform="translate(915,396)" d="m0 0h91l14 3 10 5 8 9 4 11 1 7v36l-3 12-6 8-9 5-15 3 12 3 9 5 5 4 6 9 4 11v54l-4 13-6 9-7 6-8 4-10 3-7 1h-89z" fill="#26602F"/>
<path transform="translate(1670,396)" d="m0 0h80l21 3 12 6 5 4 6 9 3 11v43l-3 10-6 9-9 6-13 3 14 3 9 6 6 7 3 7 1 5v89h-53l-1-92-3-6-3-3-3-1h-11v102h-55z" fill="#26602F"/>
<path transform="translate(1258,391)" d="m0 0 19 1 17 4 12 6 9 8 7 14 3 12 1 11v30l-1 1h-56l-1-39-2-7-2-2h-9l-4 5-1 3v136l3 6 2 2 6 1 5-2 3-5 1-47h-11v-31h68v119h-37l-4-13-1-1-5 6-11 7-10 4-12 2-16-1-10-3-10-6-8-9-7-15-3-12-1-7v-122l3-17 5-12 7-9 8-7 12-6 11-3z" fill="#26602F"/>
<path transform="translate(1078,396)" d="m0 0h82l30 218v3h-57l-1-5-2-28v-6l-20 1-3 38h-57l1-15 26-205z" fill="#26602F"/>
<path transform="translate(1832,396)" d="m0 0h82l1 1 24 174 6 46h-57l-1-4-2-27v-8h-21v12l-2 27h-57v-8z" fill="#26602F"/>
<path transform="translate(490,429)" d="m0 0 9 1 6 4 6 9 5 12 7 5h21l11 4 5 4 2 4v7l-7 11-2 4v9l4 7 11 9 5 6 1 2v12l-4 6-6 3-11 2-6 4-3 6v11l2 6v10l-7 8-6 4h-7l-6-4-8-5h-12l-6 4-8 13-5 4-9 1-9-3-4-5-4-15-6-7-5-2h-9l-12 4h-5l-13-16 1-6 7-10 2-5v-11l-4-6-14-8-3-6v-11l3-7 6-4 12-3 6-4 3-4 1-10-3-11v-7l4-6 11-6 9 1 9 6 9 2 9-3 4-5 6-11 4-3z" fill="#374945"/>
<path transform="translate(1564,396)" d="m0 0h96v45h-39v40h37v43h-37v48h42v45h-99z" fill="#26602F"/>
<path transform="translate(644,453)" d="m0 0 16 6 22 10 21 9 26 12 19 9 20 6 26 4 19 3-2 2h-18l-28-3-49-8-31-6 1 18v21l-3 27-6 23-8 20-10 18-11 14-9 10-8 8-14 11-15 10-20 11-23 9-27 7-16 2h-31l-16-2-6-2 2-2 28-2 22-5 21-7 18-8 18-10 12-9 15-13 9-10 12-15 6-9 6-11 10-21 8-27 2-13 1-12v-18l-2-20-3-16-5-18z" fill="#374A44"/>
<path transform="translate(436,332)" d="m0 0h36l12 2 3 2-28 3-25 6-21 8-18 8-17 11-12 9-14 13-7 8-13 17-10 17-10 21-7 22-3 17-1 11v22l2 20 3 15 5 17 1 8-10-3-24-10-28-11-30-13-13-6-13-4-26-4-26-3-1-2h33l35 4 49 7 11 2-1-20v-30l2-19 5-21 8-21 8-15 12-17 12-13 7-7 11-9 17-12 18-10 21-9 15-5 23-5z" fill="#374A44"/>
<path transform="translate(477,482)" d="m0 0h13l12 4 10 8 6 9 3 9v17l-4 10-6 8-9 6-13 4h-11l-13-4-8-6-6-7-4-10-1-4v-13l4-11 7-9 9-7z" fill="#FDFDFD"/>
<path transform="translate(970,516)" d="m0 0h12l6 5 1 2v49l-3 5-6 3h-10z" fill="#FDFDFD"/>
<path transform="translate(1873,437)" d="m0 0 2 1 9 95v6h-20z" fill="#FDFDFD"/>
<path transform="translate(1119,437)" d="m0 0h1l9 95v7h-19v-12l8-89z" fill="#FDFDFD"/>
<path transform="translate(1725,431)" d="m0 0h7l9 3 4 5 1 3v28l-3 6-6 4-12 1z" fill="#FDFDFD"/>
<path transform="translate(970,431)" d="m0 0h8l7 3 4 6v34l-4 6-4 2h-11z" fill="#FDFDFD"/>
<path transform="translate(508,695)" d="m0 0 4 1-11 3-30 3 2 2-7-1-3-2 2-1 28-2z" fill="#26602F"/>
<path transform="translate(141,533)" d="m0 0h33l11 1v1h-26v1h-11l-7-2z" fill="#26602F"/>
<path transform="translate(786,509)" d="m0 0 16 1 11 2-2 2h-18l-10-1v-1h18l-15-2z" fill="#26602F"/>
</svg>
